<svg xmlns="http://www.w3.org/2000/svg" width="430" height="430" style="width:100%;height:100%;transform:translate3d(0,0,0);content-visibility:visible" viewBox="0 0 430 430"><defs><clipPath id="a"><path d="M0 0h430v430H0z"/></clipPath><clipPath id="d"><path d="M0 0h430v430H0z"/></clipPath><clipPath id="c"><path d="M0 0h430v430H0z"/></clipPath><clipPath id="b"><path d="M0 0h430v430H0z"/></clipPath></defs><g clip-path="url(#a)"><g clip-path="url(#b)" style="display:none"><g style="display:none"><path fill="none" class="primary"/><path class="primary"/><path fill="none" class="primary"/><path class="primary"/><path fill="none" class="primary"/><path class="primary"/><path class="primary" style="mix-blend-mode:multiply"/><path class="secondary"/><path fill="none" class="secondary"/><path class="secondary" style="mix-blend-mode:multiply"/></g><g style="display:none"><path fill="none" class="primary"/><path class="primary"/><path fill="none" class="primary"/><path class="primary"/><path fill="none" class="primary"/><path class="primary"/><path class="primary" style="mix-blend-mode:multiply"/><path class="secondary"/><path fill="none" class="secondary"/><path class="secondary" style="mix-blend-mode:multiply"/></g><g style="display:none"><path class="quaternary"/><path class="quaternary" style="mix-blend-mode:multiply"/></g><g style="display:none"><path class="tertiary"/><path class="quinary"/><path class="tertiary" style="mix-blend-mode:multiply"/><path class="quinary" style="mix-blend-mode:multiply"/></g><path fill="none" class="tertiary" style="display:none"/></g><g clip-path="url(#c)" style="display:block"><g style="display:block"><path fill="none" stroke="#F9C9C0" stroke-linecap="round" stroke-linejoin="round" stroke-width="1.06" d="m325.797 275.248-51.408 30.518-.042 43.366 66.027 8.2-.001-40.25-14.576-41.834z" class="primary"/><path fill="#F9C9C0" d="m325.797 275.248-51.408 30.518-.042 43.366 66.027 8.2-.001-40.25-14.576-41.834z" class="primary"/><path fill="none" stroke="#F9C9C0" stroke-linecap="round" stroke-linejoin="round" stroke-width="1.06" d="m325.403 280.574 33.781-40.037v-86.545c0-9.522 7.72-17.242 17.242-17.242 0 0 0 0 0 0 9.522 0 18.741 7.72 18.741 17.242V254.45l-2.38 2.775-52.767 59.758.11 23.785" class="primary"/><path fill="#F9C9C0" d="m325.403 280.574 33.781-40.037v-86.545c0-9.522 7.72-17.242 17.242-17.242 9.522 0 18.741 7.72 18.741 17.242V254.45l-2.38 2.775-52.767 59.758.11 23.785" class="primary"/><path fill="none" stroke="#F9C9C0" stroke-linecap="round" stroke-linejoin="round" stroke-width="1.06" d="m274.537 340.337.062-55.332 51.039-54.72c3.2-3.973 33.487-14.41 33.546 10.252L325.427 280.5" class="primary"/><path fill="#F9C9C0" d="m274.537 340.337.062-55.332 51.039-54.72c3.2-3.973 33.487-14.41 33.546 10.252L325.427 280.5" class="primary"/><path fill="#B26836" d="m278.352 390.556 70.678-.04a5.3 5.3 0 0 0 5.3-5.3v-39.08a5.3 5.3 0 0 0-5.3-5.3l-80.471-.04c-3.801 0-6.367 3.883-4.875 7.38l9.793 39.159a5.3 5.3 0 0 0 4.875 3.221z" class="secondary"/><path fill="none" stroke="#B26836" stroke-linecap="round" stroke-linejoin="round" stroke-width="3.18" d="m278.352 390.556 70.678-.04a5.3 5.3 0 0 0 5.3-5.3v-39.08a5.3 5.3 0 0 0-5.3-5.3l-80.471-.04c-3.801 0-6.367 3.883-4.875 7.38l9.793 39.159a5.3 5.3 0 0 0 4.875 3.221z" class="secondary"/><path fill="#F9C9C0" d="M413.814 186.523c0-8.361-6.212-15.273-14.283-16.396a16.482 16.482 0 0 1 4.842 11.687v84.511a25.206 25.206 0 0 1-6.363 16.735l-45.752 51.494v26.199h9.441v-21.49l45.752-51.495a25.2 25.2 0 0 0 6.363-16.734v-84.511zm-68.971 121.331c4.987-5.525 20.976-24.053 34.695-40.991.196-9.241-3.451-12.617-9.447-14.263-4.537-1.246-10.529-.062-14.899 1.222 6.971.852 12.484 5.422 11.953 13.395a10303.192 10303.192 0 0 1-30.12 33.601c-3.045 3.38-.632 8.758 3.923 8.758 1.49 0 2.898-.618 3.895-1.722z" class="primary" opacity=".5" style="mix-blend-mode:multiply" transform="matrix(1.06 0 0 1.06 -43.143 -42.954)"/><path fill="#B26836" d="M360.041 360.782h9.797a6.544 6.544 0 0 1 6.544 6.545v36.259a6.544 6.544 0 0 1-6.544 6.545h-9.797a6.544 6.544 0 0 0 6.544-6.545v-36.259a6.544 6.544 0 0 0-6.544-6.545z" class="secondary" opacity=".5" style="mix-blend-mode:multiply" transform="matrix(1.06 0 0 1.06 -43.143 -42.954)"/></g><g style="display:block"><path fill="none" stroke="#F9C9C0" stroke-linecap="round" stroke-linejoin="round" stroke-width="1.06" d="m104.203 275.248 51.408 32.018-.459 42.617-65.276 7.2v-40.25l14.327-41.585z" class="primary"/><path fill="#F9C9C0" d="m104.203 275.248 51.408 32.018-.459 42.617-65.276 7.2v-40.25l14.327-41.585z" class="primary"/><path fill="none" stroke="#F9C9C0" stroke-linecap="round" stroke-linejoin="round" stroke-width="1.06" d="m104.597 280.574-33.781-40.037v-86.545c0-9.522-7.72-17.242-17.242-17.242 0 0 0 0 0 0-9.522 0-18.741 7.72-18.741 17.242V254.45l2.38 2.775 52.767 59.758-.11 23.785" class="primary"/><path fill="#F9C9C0" d="m104.597 280.574-33.781-40.037v-86.545c0-9.522-7.72-17.242-17.242-17.242-9.522 0-18.741 7.72-18.741 17.242V254.45l2.38 2.775 52.767 59.758-.11 23.785" class="primary"/><path fill="none" stroke="#F9C9C0" stroke-linecap="round" stroke-linejoin="round" stroke-width="1.06" d="m155.463 340.337-.062-55.332-51.039-54.72c-3.2-3.973-33.487-14.41-33.546 10.252l33.757 39.964" class="primary"/><path fill="#F9C9C0" d="m155.463 340.337-.062-55.332-51.039-54.72c-3.2-3.973-33.487-14.41-33.546 10.252l33.757 39.964" class="primary"/><path fill="#F9C9C0" d="M413.814 186.523c0-8.361-6.212-15.273-14.283-16.396a16.482 16.482 0 0 1 4.842 11.687v84.511a25.206 25.206 0 0 1-6.363 16.735l-45.752 51.494v26.199h9.441v-21.49l45.752-51.495a25.2 25.2 0 0 0 6.363-16.734v-84.511zm-68.971 121.331c4.987-5.525 20.976-24.053 34.695-40.991.196-9.241-3.451-12.617-9.447-14.263-4.537-1.246-10.529-.062-14.899 1.222 6.971.852 12.484 5.422 11.953 13.395a10303.192 10303.192 0 0 1-30.12 33.601c-3.045 3.38-.632 8.758 3.923 8.758 1.49 0 2.898-.618 3.895-1.722z" class="primary" opacity=".5" style="mix-blend-mode:multiply" transform="matrix(-1.06 0 0 1.06 473.143 -42.954)"/><path fill="#B26836" d="m151.648 390.556-70.678-.04a5.3 5.3 0 0 1-5.3-5.3v-39.08a5.3 5.3 0 0 1 5.3-5.3l80.471-.04c3.801 0 6.367 3.883 4.875 7.38l-9.793 39.159a5.3 5.3 0 0 1-4.875 3.221z" class="secondary"/><path fill="none" stroke="#B26836" stroke-linecap="round" stroke-linejoin="round" stroke-width="3.18" d="m151.648 390.556-70.678-.04a5.3 5.3 0 0 1-5.3-5.3v-39.08a5.3 5.3 0 0 1 5.3-5.3l80.471-.04c3.801 0 6.367 3.883 4.875 7.38l-9.793 39.159a5.3 5.3 0 0 1-4.875 3.221z" class="secondary"/><path fill="#B26836" d="M360.041 360.782h9.797a6.544 6.544 0 0 1 6.544 6.545v36.259a6.544 6.544 0 0 1-6.544 6.545h-9.797a6.544 6.544 0 0 0 6.544-6.545v-36.259a6.544 6.544 0 0 0-6.544-6.545z" class="secondary" opacity=".5" style="mix-blend-mode:multiply" transform="matrix(-1.06 0 0 1.06 473.143 -42.954)"/></g><g fill="#EBE6EF" style="display:block"><path d="M299.43 105.303c-9.43 9.441-22.467 13.092-34.687 10.987-1.052-.19-2.128.18-2.878.94l-15.725 15.725-28.84 28.83-17.035 17.046a3.284 3.284 0 0 0-.952 2.878c2.117 12.22-1.534 25.245-10.976 34.675-10.158 10.17-24.483 13.63-37.486 10.394-2.532-.627-3.416-3.797-1.568-5.645l21.94-21.93a3.385 3.385 0 0 0 .661-3.819l-5.387-11.39a3.418 3.418 0 0 0-1.602-1.602l-11.39-5.376a3.349 3.349 0 0 0-3.808.661l-21.806 21.795-.135.135c-1.848 1.848-5.006.974-5.645-1.568a36.19 36.19 0 0 1-.504-2.386 21.494 21.494 0 0 1-.201-1.176c-.09-.515-.157-1.03-.202-1.546-.033-.28-.067-.56-.09-.84a22.293 22.293 0 0 1-.089-1.21c-.034-.402-.045-.806-.056-1.198-.011-.403-.022-.795-.022-1.187-.012-10.113 3.841-20.227 11.558-27.944 7.706-7.705 17.808-11.558 27.91-11.558.493 0 .986.011 1.479.033.213 0 .414.012.627.023.426.022.862.056 1.288.09h.011c.515.044 1.03.1 1.546.167.1.012.201.023.313.034.493.067.975.146 1.468.235h.033c.997.168 2.016-.157 2.767-.829l61.835-61.835c.672-.75.997-1.758.829-2.766v-.034c-.09-.493-.168-.974-.236-1.467-.01-.112-.022-.213-.033-.314a36.186 36.186 0 0 1-.168-1.545v-.011a49.733 49.733 0 0 1-.09-1.288c-.011-.213-.022-.415-.022-.628a32.555 32.555 0 0 1-.034-1.478c0-10.102 3.853-20.216 11.559-27.922 7.705-7.705 17.819-11.558 27.921-11.558.403 0 .795.011 1.199.022.403.012.795.023 1.198.056.717.034 1.434.101 2.14.19.492.046.985.113 1.466.191.392.056.784.123 1.176.202.46.078.919.168 1.378.269.336.078.672.156 1.008.246 2.016.493 2.98 2.576 2.374 4.346-.156.47-.425.907-.806 1.299l-22.635 22.635a3.37 3.37 0 0 0-.661 3.808l5.813 12.298.09.179.179.09 12.297 5.812a3.345 3.345 0 0 0 3.808-.66l22.647-22.636c1.848-1.848 5.017-.963 5.644 1.568 3.237 13.003-.235 27.328-10.393 37.487z" class="quaternary"/><path d="M-32.499 57.023a3.007 3.007 0 0 0-.886-.644l-10.17-4.8a2.99 2.99 0 0 0-3.4.59l-19.47 19.46-.12.12c-1.65 1.65-4.47.87-5.04-1.4-.17-.71-.33-1.42-.45-2.13-.07-.35-.13-.7-.18-1.05-.08-.46-.14-.92-.18-1.38-.03-.25-.06-.5-.08-.75a19.6 19.6 0 0 1-.08-1.08c-.03-.36-.04-.72-.05-1.07-.01-.36-.02-.71-.02-1.06-.01-9.03 3.43-18.06 10.32-24.95 6.88-6.88 15.9-10.32 24.92-10.32.44 0 .88.01 1.32.03.19 0 .37.01.56.02.38.02.77.05 1.15.08h.01c.46.04.92.09 1.38.15l.28.03c.44.06.87.13 1.31.21h.03c.89.15 1.8-.14 2.47-.74l55.21-55.21c.6-.67.89-1.57.74-2.47v-.03c-.08-.44-.15-.87-.21-1.31l-.03-.28c-.06-.46-.11-.92-.15-1.38v-.01c-.03-.38-.06-.77-.08-1.15-.01-.19-.02-.37-.02-.56-.02-.44-.03-.88-.03-1.32 0-9.02 3.44-18.05 10.32-24.93 6.88-6.88 15.91-10.32 24.93-10.32.36 0 .71.01 1.07.02.36.01.71.02 1.07.05.64.03 1.28.09 1.91.17.44.04.88.1 1.31.17.35.05.7.11 1.05.18.41.07.82.15 1.23.24.3.07.6.14.9.22 1.8.44 2.66 2.3 2.12 3.88-.14.42-.38.81-.72 1.16l-20.21 20.21a3.01 3.01 0 0 0-.59 3.4l5.19 10.98.08.16.16.08s-88.654 88.965-88.874 88.734z" class="quaternary" opacity=".5" style="mix-blend-mode:multiply" transform="matrix(1.12 0 0 1.12 202.285 119.248)"/></g><g style="display:block"><path fill="#3A3347" d="m305.724 208.204-8.725 8.726-1.109 1.108c-5.185 5.175-13.641 5.22-18.883.124l-.123-.124-62.429-62.428c-5.219-5.23-5.219-13.776 0-19.007l9.834-9.833c5.23-5.22 13.776-5.22 19.006 0l46.48 46.48 16.128 16.138c.101.1.202.201.291.313 4.75 5.253 4.581 13.44-.47 18.503z" class="tertiary"/><path fill="#4BB3FD" d="M305.725 208.204 297 216.929l-1.109 1.108c-5.185 5.175-13.641 5.22-18.883.124l-.123-.124-15.949-15.948h.011l9.397-9.397 19.432-19.443 16.128 16.139c.101.1.202.201.291.313 4.75 5.253 4.581 13.44-.47 18.503z" class="quinary"/><path fill="#3A3347" d="m26.691 21.075-8.39 8.39-41.49-41.5c-4.67-4.67-4.67-12.3 0-16.97l.46-.46a13.7 13.7 0 0 0 2.7 3.82l46.72 46.72z" class="tertiary" opacity=".5" style="mix-blend-mode:multiply" transform="matrix(1.12 0 0 1.12 240.434 169.083)"/><path fill="#4BB3FD" d="m16.1 8.583-.99.99c-4.63 4.62-12.18 4.66-16.86.11l-.11-.11v-.01l-14.23-14.23h-.01v-.01l8.39-8.39 18.25 18.25c1.52 1.52 3.61 2.73 5.56 3.4z" class="quinary" opacity=".5" style="mix-blend-mode:multiply" transform="matrix(1.12 0 0 1.12 278.967 207.316)"/></g><path fill="none" stroke="#3A3347" stroke-linecap="round" stroke-linejoin="round" stroke-width="6.2" d="m34.952 34.957-69.904-69.914" class="tertiary" style="display:block" transform="matrix(1.12 0 0 1.12 180.042 92.73)"/></g><g clip-path="url(#d)" style="display:none"><g style="display:none"><path class="quaternary"/><path class="quaternary" style="mix-blend-mode:multiply"/></g><g style="display:none"><path class="tertiary"/><path class="quinary"/><path class="tertiary" style="mix-blend-mode:multiply"/><path class="quinary" style="mix-blend-mode:multiply"/></g><path fill="none" class="tertiary" style="display:none"/><g style="display:none"><path class="primary"/><path fill="none" class="primary"/><path class="primary"/><path fill="none" class="primary"/><path fill="none" class="primary"/><path class="primary"/><path class="primary" style="mix-blend-mode:multiply"/><path class="secondary"/><path fill="none" class="secondary"/><path class="secondary" style="mix-blend-mode:multiply"/></g><g style="display:none"><path class="primary"/><path fill="none" class="primary"/><path class="primary"/><path fill="none" class="primary"/><path fill="none" class="primary"/><path class="primary"/><path class="primary" style="mix-blend-mode:multiply"/><path class="secondary"/><path fill="none" class="secondary"/><path class="secondary" style="mix-blend-mode:multiply"/></g></g></g></svg>